<svg width="84" height="38" viewBox="0 0 84 38" fill="none" xmlns="http://www.w3.org/2000/svg">
<g id="Group 290">
<rect id="Rectangle 56" width="84" height="38" rx="19" fill="black" fill-opacity="0.15"/>
<g id="Group 286">
<circle id="Ellipse 472" cx="63" cy="19" r="16" fill="white"/>
<g id="sun">
<path id="Vector" d="M63.4997 24.1043C66.0425 24.1043 68.1038 22.043 68.1038 19.5002C68.1038 16.9574 66.0425 14.896 63.4997 14.896C60.9569 14.896 58.8955 16.9574 58.8955 19.5002C58.8955 22.043 60.9569 24.1043 63.4997 24.1043Z" stroke="black" stroke-width="1.5" stroke-linecap="round" stroke-linejoin="round"/>
<path id="Vector_2" d="M68.5578 24.5573L68.4657 24.4653M68.4657 14.5344L68.5578 14.4423L68.4657 14.5344ZM58.4428 24.5573L58.5349 24.4653L58.4428 24.5573ZM63.5003 12.4732V12.4165V12.4732ZM63.5003 26.5832V26.5265V26.5832ZM56.4737 19.4998H56.417H56.4737ZM70.5837 19.4998H70.527H70.5837ZM58.5349 14.5344L58.4428 14.4423L58.5349 14.5344Z" stroke="black" stroke-width="2" stroke-linecap="round" stroke-linejoin="round"/>
</g>
</g>
</g>
</svg>
