<svg width="26" height="26" viewBox="0 0 26 26" fill="none" xmlns="http://www.w3.org/2000/svg">
<g id="menu">
<path id="menu_2" d="M2.70898 6.50016C2.70898 6.20116 2.95165 5.9585 3.25065 5.9585H22.7507C23.0497 5.9585 23.2923 6.20116 23.2923 6.50016C23.2923 6.79916 23.0497 7.04183 22.7507 7.04183H3.25065C2.95165 7.04183 2.70898 6.79916 2.70898 6.50016ZM22.7507 12.4585H3.25065C2.95165 12.4585 2.70898 12.7012 2.70898 13.0002C2.70898 13.2992 2.95165 13.5418 3.25065 13.5418H22.7507C23.0497 13.5418 23.2923 13.2992 23.2923 13.0002C23.2923 12.7012 23.0497 12.4585 22.7507 12.4585ZM22.7507 18.9585H3.25065C2.95165 18.9585 2.70898 19.2012 2.70898 19.5002C2.70898 19.7992 2.95165 20.0418 3.25065 20.0418H22.7507C23.0497 20.0418 23.2923 19.7992 23.2923 19.5002C23.2923 19.2012 23.0497 18.9585 22.7507 18.9585Z" fill="black"/>
</g>
</svg>
